PathFileType	4	(X/Y/Z)	./resultDataOpenSim/trcMotMarkerGrf/sub09/qtm-05-04.trc
DataRate	CameraRate	NumFrames	NumMarkers	Units	OrigDataRate	OrigDataStartFrame	OrigNumFrames
250.000000	250.000000	15	24	m	250.000000	557	636
Frame#	Time	L.Toe.Tip			R.Toe.Tip			L.Ankle.Lat			R.Ankle.Lat			L.Ankle.Med			R.Ankle.Med			L.Heel			R.Heel			L.Knee.Lat			R.Knee.Lat			L.Knee.Med			R.Knee.Med			L.Thigh.Upper			R.Thigh.Upper			L.ASIS			R.ASIS			V.Sacral			L.Acromium			R.Acromium			C7			L.Elbow			R.Elbow			L.Wrist.Lat			R.Wrist.Lat
		X1	Y1	Z1	X2	Y2	Z2	X3	Y3	Z3	X4	Y4	Z4	X5	Y5	Z5	X6	Y6	Z6	X7	Y7	Z7	X8	Y8	Z8	X9	Y9	Z9	X10	Y10	Z10	X11	Y11	Z11	X12	Y12	Z12	X13	Y13	Z13	X14	Y14	Z14	X15	Y15	Z15	X16	Y16	Z16	X17	Y17	Z17	X18	Y18	Z18	X19	Y19	Z19	X20	Y20	Z20	X21	Y21	Z21	X22	Y22	Z22	X23	Y23	Z23	X24	Y24	Z24

557	2.224	1.7045166	0.037721044	0.011257749	1.9439839	0.065478163	0.23633255	1.5532331	0.073537718	-0.023031142	1.7981659	0.080533774	0.25056191	1.5780109	0.090568682	0.071264591	NaN	NaN	NaN	1.4827305	0.041673072	0.023702436	1.7349632	0.047841775	0.1935748	1.6266445	0.4849169	-0.075786462	1.8067536	0.53904051	0.26208318	1.6303082	0.48326039	0.050298003	1.8185305	0.51237373	0.13734645	1.6488488	0.90820948	-0.11908386	1.6438533	0.90519746	0.25713101	1.7379712	0.99427954	-0.052104315	1.7224045	0.9984918	0.19092491	1.5582135	1.0410502	0.058972063	1.7067271	1.4508307	-0.091243602	1.6645428	1.4571707	0.23670323	1.6219723	1.5034657	0.065600131	1.6103374	1.089346	-0.1699267	1.5108534	1.122227	0.30348287	1.8494708	0.94949824	-0.16467199	1.6456288	0.88725075	0.35006384
558	2.228	1.7045545	0.037697834	0.011260863	1.9574216	0.067032759	0.23701672	1.5531588	0.073699098	-0.022878821	1.811038	0.079802487	0.25097176	1.5781822	0.090581258	0.071347684	NaN	NaN	NaN	1.4827812	0.041881324	0.023810276	1.7485036	0.046032092	0.19355039	1.6283199	0.48478166	-0.075580886	1.8103159	0.53836875	0.26198213	1.6318927	0.48314103	0.050480843	1.8225458	0.51194138	0.13717889	1.6522327	0.90795773	-0.11879869	1.6475728	0.90471988	0.25740558	1.7415336	0.99392218	-0.0518096	1.7262493	0.99807484	0.1912599	1.5619219	1.0406915	0.059559369	1.7104989	1.4505028	-0.090749971	1.6684045	1.4567318	0.23717199	1.6260999	1.5032562	0.066140038	1.6140373	1.0889291	-0.16960985	1.5144258	1.1219158	0.30389962	1.8536552	0.95021537	-0.16396929	1.6489807	0.88672202	0.3501329
559	2.232	1.7045989	0.037676982	0.011263858	1.9705839	0.068753374	0.23775505	1.5533017	0.073753349	-0.022797074	1.823798	0.079214123	0.25137818	1.5783873	0.090604993	0.071447458	NaN	NaN	NaN	1.4828407	0.042096035	0.02394823	1.7620194	0.044454224	0.19327674	1.6300184	0.48464774	-0.075364359	1.8138437	0.53764874	0.26188101	1.6335406	0.48303042	0.050673696	1.8264489	0.51147448	0.13698888	1.655614	0.90769463	-0.11850126	1.6505275	0.9042839	0.25754577	1.7450873	0.99356188	-0.0515038	1.7301229	0.9976448	0.19160676	1.5656192	1.0403332	0.060105438	1.7142767	1.4501617	-0.090251171	1.6722358	1.456299	0.23764563	1.6302289	1.5030246	0.066693902	1.6177166	1.0884987	-0.16927282	1.5180257	1.1215842	0.30433197	1.8573123	0.95093068	-0.16328856	1.6523331	0.88617398	0.35021413
560	2.236	1.7046436	0.037656626	0.011266315	1.9834553	0.070681485	0.23852705	1.5536166	0.073759654	-0.022763449	1.836425	0.078757627	0.25177832	1.5786234	0.090638983	0.071563252	NaN	NaN	NaN	1.4829047	0.042316544	0.024114086	1.7754863	0.043088453	0.19278616	1.631732	0.48451099	-0.075136729	1.8173216	0.53689015	0.26178596	1.6352255	0.48292487	0.05088017	1.8302315	0.51096448	0.1368029	1.6589865	0.90742134	-0.1181851	1.6521419	0.90391844	0.25744922	1.7486143	0.99320399	-0.051195462	1.7340317	0.99720303	0.191964	1.5693103	1.0399734	0.060607205	1.7180571	1.4498111	-0.08974315	1.6760786	1.4558522	0.23813015	1.634366	1.5027832	0.067260568	1.6213739	1.0880729	-0.16890898	1.5216553	1.1212286	0.30479718	1.8605467	0.95163366	-0.16262532	1.6556754	0.88560981	0.35031159
561	2.24	1.7046847	0.037636678	0.011267486	1.9959883	0.072870236	0.23930996	1.553953	0.073801414	-0.022727157	1.8489071	0.078432983	0.25217005	1.5788761	0.090679579	0.071687904	NaN	NaN	NaN	1.482967	0.042539994	0.024292699	1.7888061	0.041845327	0.19233105	1.6334719	0.48437262	-0.074898812	1.8207462	0.53610417	0.26170206	1.6369282	0.48281859	0.051102924	1.833887	0.51040941	0.13664008	1.6623509	0.90714496	-0.11785188	1.6526881	0.90360563	0.25715983	1.7521066	0.99285034	-0.050888686	1.7379653	0.99675192	0.19232633	1.5730017	1.0396051	0.06109668	1.721836	1.4494474	-0.089226403	1.6799731	1.4553689	0.23863376	1.6385173	1.502542	0.067840007	1.6250022	1.0876658	-0.16853028	1.5252963	1.1208579	0.30529397	1.8637866	0.95228302	-0.16195599	1.6590271	0.88504077	0.35042465
562	2.244	1.7047223	0.037617954	0.011267066	2.00808	0.075339856	0.24007611	1.5542025	0.073910419	-0.022661272	1.8612324	0.078229555	0.2525447	1.5791219	0.090724015	0.071810262	NaN	NaN	NaN	1.4830223	0.042763413	0.024465326	1.8018833	0.04065456	0.19214941	1.635252	0.4842345	-0.074652687	1.8241145	0.53529732	0.26163618	1.6386519	0.48270779	0.05133948	1.8374157	0.5098088	0.13649942	1.6657082	0.90687419	-0.11750553	1.653431	0.90327355	0.25690122	1.7555765	0.99250181	-0.050581801	1.7419075	0.99629422	0.19268841	1.5766724	1.0392106	0.061601721	1.7256142	1.4490612	-0.088702487	1.683913	1.4548452	0.2391573	1.6426845	1.5023025	0.068435079	1.6285931	1.0872756	-0.16814597	1.5289342	1.1204825	0.30581301	1.8673741	0.95284516	-0.16126346	1.6624164	0.88447662	0.35055203
563	2.248	1.7047584	0.037600716	0.011265251	2.019723	0.07803043	0.24078421	1.5543618	0.074068833	-0.022568584	1.8733288	0.078064793	0.25286927	1.5793421	0.090770406	0.071922328	NaN	NaN	NaN	1.4830689	0.042991945	0.024622697	1.8146895	0.039529317	0.19225486	1.6370742	0.48409572	-0.074398855	1.8274413	0.5344731	0.26159962	1.6404175	0.48259204	0.051581503	1.8408263	0.50915832	0.13637383	1.6690504	0.90661274	-0.11714258	1.6554638	0.90285698	0.25687122	1.7590497	0.99215905	-0.050268163	1.7458542	0.99583205	0.19304673	1.5803019	1.0387713	0.062118529	1.7294011	1.4486476	-0.08816843	1.6878772	1.4542942	0.23969706	1.6468698	1.5020591	0.069048559	1.6321444	1.0868862	-0.16775035	1.5325631	1.120094	0.3063451	1.8712918	0.95332292	-0.16055334	1.6658558	0.8839181	0.35069444
564	2.252	1.7047949	0.037584678	0.01126271	2.0310811	0.080805144	0.24138383	1.5544783	0.074248671	-0.022459773	1.8850061	0.077735935	0.25307112	1.5795365	0.0908169	0.072025158	NaN	NaN	NaN	1.4831104	0.043238627	0.024769902	1.8272419	0.038521213	0.19251199	1.6389294	0.48395586	-0.074135354	1.8307615	0.5336355	0.26160062	1.6422477	0.48247274	0.051821511	1.8441359	0.50845393	0.13626661	1.6723705	0.9063557	-0.11675349	1.658799	0.90234843	0.25707592	1.7625508	0.99182304	-0.049940196	1.7498183	0.99536718	0.19339986	1.5839188	1.0382992	0.062646621	1.7332076	1.4482119	-0.087617944	1.6918695	1.4537305	0.24025183	1.6510784	1.5018047	0.069680884	1.6356662	1.0864805	-0.16733668	1.5361829	1.1196789	0.30687911	1.8753334	0.95373776	-0.15983945	1.6693369	0.88335925	0.35085444
565	2.256	1.7048325	0.037568956	0.011260526	2.0423289	0.083545086	0.24183639	1.5545876	0.074434	-0.022341403	1.896035	0.077016185	0.25306748	1.5797219	0.090863948	0.072127485	NaN	NaN	NaN	1.4831528	0.043513784	0.024918659	1.8395587	0.037655554	0.19279422	1.6408067	0.48381685	-0.073862285	1.8341083	0.53278804	0.26163598	1.6441431	0.48235062	0.052059915	1.847367	0.50769531	0.13618361	1.6756738	0.90609199	-0.11633185	1.6628001	0.90177783	0.25740626	1.7660936	0.99149342	-0.049596429	1.753815	0.99490239	0.19374808	1.5875716	1.0378152	0.063224759	1.7370357	1.4477661	-0.08704594	1.6958929	1.453164	0.2408213	1.6553161	1.5015339	0.070329534	1.6391711	1.086053	-0.16690614	1.5398027	1.1192463	0.30741255	1.879343	0.95410178	-0.15912826	1.6728396	0.88279339	0.35103535
566	2.26	1.7048705	0.037552197	0.011259203	2.0534892	0.08622813	0.24213037	1.554702	0.074621149	-0.022215737	1.9064114	0.075935974	0.25286054	1.5799168	0.090916243	0.072240536	NaN	NaN	NaN	1.4831983	0.043818486	0.025075445	1.8516447	0.036921102	0.19303193	1.6427006	0.48368053	-0.073583791	1.8375025	0.5319325	0.26169571	1.646075	0.48222562	0.052304235	1.8505424	0.50688401	0.13611867	1.6789694	0.9058111	-0.11588033	1.6669389	0.90117272	0.25777139	1.7696661	0.99116976	-0.049245953	1.7578488	0.99444048	0.19409147	1.5912713	1.0373019	0.06390036	1.7408777	1.44732	-0.086451379	1.6999231	1.452598	0.24140393	1.6595818	1.5012456	0.070989984	1.6426594	1.0856157	-0.16646269	1.543425	1.1188122	0.30795494	1.8832726	0.95441454	-0.15841945	1.6763468	0.88221792	0.35123804
567	2.264	1.7049083	0.037533948	0.01125802	2.0644682	0.088895001	0.24227516	1.5548239	0.074813015	-0.022082655	1.9164977	0.074903037	0.25258668	1.5801325	0.090980374	0.072372935	NaN	NaN	NaN	1.4832454	0.04414696	0.025238642	1.8634947	0.036298378	0.19319531	1.6446108	0.48354789	-0.073303122	1.8409451	0.53106957	0.26176971	1.6480189	0.4820989	0.052560429	1.8536811	0.50602288	0.13606086	1.6822629	0.9055107	-0.11540706	1.6710097	0.90054648	0.25813462	1.7732245	0.99085614	-0.048904304	1.761911	0.99398125	0.19443054	1.5949989	1.0367307	0.064686204	1.7447267	1.4468732	-0.085837489	1.7039415	1.4520257	0.24200151	1.6638643	1.5009424	0.071658316	1.6461195	1.085189	-0.16601087	1.5470396	1.1183727	0.30850837	1.887132	0.95467347	-0.1577108	1.6798504	0.88163738	0.351458
568	2.268	1.704945	0.037514982	0.011256169	2.0751691	0.091580695	0.24228378	1.5549522	0.075016042	-0.021942806	1.926717	0.074347862	0.25240123	1.5803792	0.091060672	0.072523046	NaN	NaN	NaN	1.4832932	0.044491505	0.025406577	1.8750939	0.035777021	0.19328498	1.6465396	0.48342006	-0.073019716	1.8444231	0.53019791	0.26184941	1.6499877	0.4819725	0.052825786	1.8567969	0.50511898	0.13601163	1.6855591	0.90519793	-0.1149202	1.6750071	0.89990353	0.25849551	1.7767271	0.99055838	-0.048582602	1.7659899	0.99352112	0.19476904	1.5987263	1.0361058	0.065563355	1.7485849	1.4464167	-0.085209718	1.7079724	1.4514304	0.24261979	1.6681482	1.5006268	0.072332263	1.6495441	1.0847817	-0.16555343	1.5506443	1.1179122	0.30906432	1.8909364	0.95487888	-0.15700123	1.6833523	0.88106002	0.35168762
569	2.272	1.7049794	0.037496379	0.011253831	2.0855461	0.094289808	0.24216337	1.5550839	0.075238733	-0.021800456	1.9371515	0.074330526	0.252333	1.5806839	0.091159589	0.072669614	NaN	NaN	NaN	1.4833433	0.04484783	0.025584571	1.8864202	0.035339671	0.19332414	1.6484904	0.48329919	-0.072733335	1.8479379	0.52931122	0.26192972	1.6520167	0.48184665	0.053093105	1.8599004	0.50418646	0.13598323	1.6888585	0.90488059	-0.11442285	1.6789863	0.89924459	0.25886723	1.7801769	0.99027486	-0.048279341	1.7700773	0.99305727	0.19511221	1.6024267	1.0354416	0.066495811	1.7524645	1.4459394	-0.084574555	1.7120566	1.450801	0.24326004	1.6724246	1.5002955	0.07301207	1.6529386	1.0843829	-0.16508509	1.5542475	1.1174288	0.30962215	1.894688	0.95503189	-0.15629406	1.6868657	0.88049014	0.35192333
570	2.276	1.7050117	0.037479621	0.011251382	2.0955985	0.097002812	0.24192185	1.5552161	0.075487761	-0.021661272	1.9475723	0.0746231	0.25229983	1.5811087	0.09128441	0.072770628	NaN	NaN	NaN	1.4833975	0.045217782	0.025781222	1.8974514	0.034958624	0.19332571	1.6504679	0.48318826	-0.072446206	1.8515113	0.52839854	0.26200807	1.6541232	0.48171885	0.053360009	1.8630027	0.50324336	0.13598337	1.6921444	0.90455852	-0.11388466	1.6829977	0.89856863	0.25925863	1.783617	0.98999602	-0.047981653	1.7741645	0.99259021	0.19546228	1.6061065	1.0347382	0.067436389	1.7563822	1.4454328	-0.083940146	1.7161901	1.4501479	0.24391328	1.6766957	1.499939	0.073703026	1.6563117	1.0839788	-0.16459757	1.5578501	1.116936	0.31018684	1.898382	0.95513264	-0.15559573	1.6904088	0.87992571	0.35217161
571	2.28	1.7050438	0.037466538	0.011248655	2.1053411	0.099693288	0.24157463	1.5553494	0.075763182	-0.021526994	1.9577379	0.075003816	0.25221413	1.5817404	0.091450517	0.072783177	NaN	NaN	NaN	1.4834547	0.045603866	0.025999005	1.9081671	0.034627765	0.19326807	1.6524775	0.48308736	-0.072158963	1.8551817	0.52745507	0.26207484	1.6562886	0.48158704	0.053630764	1.8661182	0.50230253	0.1360096	1.6953752	0.90422629	-0.1131905	1.6870709	0.89787437	0.25967048	1.7870902	0.98971529	-0.047674042	1.7782494	0.99212057	0.1958193	1.6097913	1.0340016	0.068340668	1.7603513	1.4448911	-0.083315334	1.7203245	1.4494936	0.24456768	1.6809719	1.4995525	0.074414531	1.6596617	1.0835701	-0.16409183	1.5614429	1.116442	0.31075432	1.9020143	0.95518001	-0.1549091	1.6939881	0.87936129	0.35244529
